<svg xmlns="http://www.w3.org/2000/svg" viewBox="0 0 800 450" width="100%" height="100%">
  <defs>
    <linearGradient id="mBgGradient" x1="0%" y1="0%" x2="100%" y2="100%">
      <stop offset="0%" stop-color="#020617"/>
      <stop offset="50%" stop-color="#0f172a"/>
      <stop offset="100%" stop-color="#1e293b"/>
    </linearGradient>

    <radialGradient id="mAmberGlow" cx="50%" cy="50%" r="50%">
      <stop offset="0%" stop-color="#f59e0b" stop-opacity="0.35"/>
      <stop offset="100%" stop-color="#f59e0b" stop-opacity="0"/>
    </radialGradient>

    <pattern id="mGrid" width="40" height="40" patternUnits="userSpaceOnUse">
      <path d="M 40 0 L 0 0 0 40" fill="none" stroke="#334155" stroke-width="0.75" stroke-opacity="0.4"/>
    </pattern>
  </defs>

  <rect width="800" height="450" fill="url(#mBgGradient)"/>
  <rect width="800" height="450" fill="url(#mGrid)"/>
  <circle cx="400" cy="225" r="250" fill="url(#mAmberGlow)"/>

  <g transform="translate(100, 80)">
    <path d="M 320 180 Q 360 140 420 170 Q 460 210 430 270 Q 370 310 310 260 Z" fill="#1e293b" stroke="#f59e0b" stroke-width="2.5" stroke-dasharray="6 3"/>
    <text x="375" y="230" fill="#f59e0b" font-family="system-ui, -apple-system, sans-serif" font-size="12" font-weight="700" text-anchor="middle">Irregular Part</text>

    <path d="M 120 280 C 180 260 260 250 320 255" fill="none" stroke="#38bdf8" stroke-width="12" stroke-linecap="round"/>
    <path d="M 120 280 C 180 260 260 250 320 255" fill="none" stroke="#cbd5e1" stroke-width="6" stroke-linecap="round"/>

    <path d="M 280 120 C 340 130 390 150 420 170" fill="none" stroke="#38bdf8" stroke-width="12" stroke-linecap="round"/>
    <path d="M 280 120 C 340 130 390 150 420 170" fill="none" stroke="#cbd5e1" stroke-width="6" stroke-linecap="round"/>

    <circle cx="320" cy="255" r="8" fill="#ef4444"/>
    <circle cx="420" cy="170" r="8" fill="#ef4444"/>

    <path d="M 80 100 Q 140 70 200 100 T 320 100" fill="none" stroke="#10b981" stroke-width="2" stroke-dasharray="4 2"/>
    <text x="200" y="70" fill="#34d399" font-family="system-ui, -apple-system, sans-serif" font-size="11" font-weight="600" text-anchor="middle">Multi-Modal Sensorimotor Feedback</text>
  </g>

  <g transform="translate(40, 30)">
    <rect x="0" y="0" width="360" height="32" rx="16" fill="#0f172a" stroke="#f59e0b" stroke-opacity="0.4" stroke-width="1.5"/>
    <text x="16" y="20" fill="#f59e0b" font-family="system-ui, -apple-system, sans-serif" font-size="11" font-weight="700" letter-spacing="1">MIT CSAIL • MASTER'S THESIS (S.M. 2014)</text>
  </g>
</svg>
